<?xml version="1.0" encoding="UTF-8"?>
<!DOCTYPE svg PUBLIC "-//W3C//DTD SVG 1.1//EN" "http://www.w3.org/Graphics/SVG/1.1/DTD/svg11.dtd">
<!-- Creator: CorelDRAW 2017 -->
<svg xmlns="http://www.w3.org/2000/svg" xml:space="preserve" width="200px" height="200px" version="1.1" style="shape-rendering:geometricPrecision; text-rendering:geometricPrecision; image-rendering:optimizeQuality; fill-rule:evenodd; clip-rule:evenodd"
viewBox="0 0 200 200"
 xmlns:xlink="http://www.w3.org/1999/xlink">
 <defs>
  <style type="text/css">
   <![CDATA[
    .fil0 {fill:none}
    .fil1 {fill:#368D02}
    .fil2 {fill:#5BAD03}
   ]]>
  </style>
 </defs>
 <g id="Layer_x0020_1">
  <metadata id="CorelCorpID_0Corel-Layer"/>
  <rect class="fil0" width="200" height="200"/>
  <path class="fil1" d="M100 5.56c16.33,0 31.7,4.14 45.1,11.44l-0.23 0.06 -0.25 0.06c-0.09,0.03 -0.18,0.05 -0.27,0.08 -0.09,0.02 -0.18,0.05 -0.27,0.07l-0.23 0.07c-0.1,0.03 -0.19,0.05 -0.29,0.08l-0.23 0.07c-0.11,0.03 -0.21,0.07 -0.32,0.1l-0.26 0.08 -0.29 0.09 -0.22 0.07 -0.32 0.11 -0.23 0.07c-0.12,0.04 -0.24,0.08 -0.36,0.12l-0.18 0.06c-0.12,0.05 -0.25,0.09 -0.38,0.14l-0.2 0.07c-0.12,0.04 -0.24,0.09 -0.36,0.13l-0.19 0.07c-0.13,0.05 -0.26,0.09 -0.39,0.14l-0.17 0.07c-0.14,0.05 -0.28,0.1 -0.42,0.15l-0.18 0.07c-0.12,0.05 -0.25,0.1 -0.37,0.15l-0.22 0.08c-0.14,0.06 -0.27,0.11 -0.4,0.16l-0.16 0.06c-0.14,0.06 -0.29,0.12 -0.43,0.18l-0.02 0c-11.33,-5.26 -23.95,-8.2 -37.26,-8.2 -48.9,0 -88.54,39.64 -88.54,88.54 0,48.9 39.64,88.54 88.54,88.54 48.9,0 88.54,-39.64 88.54,-88.54 0,-30.15 -15.07,-56.77 -38.08,-72.76l0 0c-0.02,-0.23 -0.05,-0.47 -0.07,-0.7 -0.02,-0.12 -0.03,-0.23 -0.04,-0.35 -0.03,-0.22 -0.06,-0.45 -0.09,-0.68 -0.02,-0.14 -0.03,-0.28 -0.05,-0.42 -0.03,-0.2 -0.06,-0.4 -0.09,-0.61 -0.03,-0.17 -0.05,-0.33 -0.08,-0.5 -0.03,-0.18 -0.06,-0.36 -0.09,-0.54 -0.04,-0.2 -0.07,-0.41 -0.11,-0.61 -0.03,-0.14 -0.05,-0.28 -0.08,-0.41 -0.05,-0.26 -0.1,-0.51 -0.15,-0.77l-0.06 -0.28c-0.06,-0.31 -0.13,-0.61 -0.2,-0.92l-0.03 -0.13 0 0c-0.08,-0.34 -0.16,-0.68 -0.25,-1.03 27.21,16.58 45.37,46.52 45.37,80.71 0,52.16 -42.28,94.44 -94.44,94.44 -52.16,0 -94.44,-42.28 -94.44,-94.44 0,-52.16 42.28,-94.44 94.44,-94.44z"/>
  <g id="_2342460190144">
   <path class="fil1" d="M92.13 110.49c0.34,-6.29 0.76,-13.65 0.23,-19.67 -1.95,-22.02 -28.83,-10.83 -24.87,-39.83 3.91,-0.73 24.94,6.06 26.01,23.2l-11.39 -12.4c7.52,8.1 12.66,18.4 17.12,31.8 6.11,-26.65 15.6,-44.45 29.96,-58.79 -14.66,7.78 -20.84,28.54 -25.92,30.69 -1.64,-17.09 2.46,-25.51 11.78,-32.54 5.61,-4.24 22.7,-13.3 31.44,-14.34 7.08,23.81 -3.17,38.91 -18.3,47.64 -18.56,10.71 -22.98,14.87 -22.7,36.36 -4.59,2.42 -9.04,5.05 -13.36,7.88z"/>
   <path class="fil1" d="M92.13 110.49c0.34,-6.29 0.76,-13.65 0.23,-19.67 -1.95,-22.02 -28.83,-10.83 -24.87,-39.83 3.91,-0.73 24.94,6.06 26.01,23.2l-11.39 -12.4c7.52,8.1 12.66,18.4 17.12,31.8 6.11,-26.65 15.6,-44.45 29.96,-58.79 -14.66,7.78 -20.84,28.54 -25.92,30.69 -1.64,-17.09 2.46,-25.51 11.78,-32.54 5.61,-4.24 22.7,-13.3 31.44,-14.34 7.08,23.81 -3.17,38.91 -18.3,47.64 -18.56,10.71 -22.98,14.87 -22.7,36.36 -4.59,2.42 -9.04,5.05 -13.36,7.88z"/>
  </g>
  <g id="_2342548958432">
   <path class="fil2" d="M182.28 86.72c0.48,3.02 0.81,6.1 0.96,9.23 -32.87,2.18 -63.13,13.89 -88.05,32.39 -3.48,-2.66 -7.13,-5.12 -10.92,-7.36 27.27,-20.89 61.17,-33.55 98.01,-34.26zm-127.37 83.37c-0.35,-0.22 -0.69,-0.45 -1.03,-0.68 0.34,0.23 0.68,0.45 1.03,0.68zm-1.6 -1.06c-0.34,-0.23 -0.69,-0.47 -1.03,-0.71 0.34,0.24 0.69,0.48 1.03,0.71zm-1.55 -1.08c-0.36,-0.25 -0.7,-0.5 -1.05,-0.76 0.35,0.26 0.7,0.51 1.05,0.76zm-1.53 -1.11c-0.36,-0.27 -0.72,-0.54 -1.08,-0.82 0.36,0.28 0.72,0.55 1.08,0.82zm-1.49 -1.13c-0.37,-0.3 -0.74,-0.59 -1.11,-0.89 0.37,0.3 0.74,0.59 1.11,0.89zm-1.47 -1.18c-0.38,-0.31 -0.75,-0.63 -1.13,-0.94 0.38,0.31 0.75,0.63 1.13,0.94zm-1.46 -1.23c-0.11,-0.09 -0.23,-0.19 -0.34,-0.29l0 0c0.11,0.1 0.23,0.2 0.34,0.29z"/>
   <g>
    <path class="fil2" d="M183.32 98.33c0.01,0.55 0.01,1.11 0.01,1.67 0,3.37 -0.2,6.69 -0.59,9.96 0.07,-0.58 0.13,-1.16 0.19,-1.75 -28.11,3.82 -53.99,14.65 -75.83,30.66 -2.96,-3.02 -6.09,-5.87 -9.38,-8.53 24.32,-17.97 53.69,-29.48 85.6,-32.01zm-114.09 79.13l0 0c0.39,0.16 0.79,0.32 1.19,0.47l0.01 0c-0.41,-0.16 -0.83,-0.32 -1.24,-0.48l0.04 0.01zm1.77 0.69c0.42,0.15 0.85,0.31 1.27,0.46l0 -0.01c-0.43,-0.15 -0.86,-0.3 -1.29,-0.46l0.02 0.01zm-2.39 -0.94c-0.4,-0.16 -0.8,-0.32 -1.19,-0.49 0.39,0.17 0.79,0.33 1.19,0.49zm-1.81 -0.76c-0.38,-0.16 -0.76,-0.33 -1.14,-0.5 0.38,0.17 0.76,0.34 1.14,0.5zm-1.78 -0.8c-0.37,-0.17 -0.74,-0.34 -1.11,-0.52 0.37,0.18 0.74,0.35 1.11,0.52zm-1.76 -0.84c-0.35,-0.17 -0.7,-0.35 -1.05,-0.52 0.35,0.17 0.7,0.35 1.05,0.52zm-1.74 -0.88c-0.34,-0.17 -0.67,-0.35 -1,-0.53 0.33,0.18 0.66,0.36 1,0.53zm-1.72 -0.92c-0.32,-0.18 -0.64,-0.36 -0.96,-0.54 0.32,0.18 0.64,0.36 0.96,0.54zm-1.68 -0.96l-0.12 -0.07 0 0 0.12 0.07zm124.59 -61.81c-0.07,0.53 -0.14,1.07 -0.22,1.6 0.08,-0.53 0.15,-1.07 0.22,-1.6zm-0.27 2c-0.08,0.51 -0.16,1.02 -0.24,1.53 0.08,-0.51 0.16,-1.02 0.24,-1.53zm-0.32 1.98c-0.09,0.5 -0.18,0.99 -0.27,1.48 0.09,-0.49 0.18,-0.98 0.27,-1.48zm-0.36 1.97c-0.1,0.48 -0.2,0.96 -0.3,1.44 0.1,-0.48 0.2,-0.96 0.3,-1.44zm-0.41 1.95c-0.11,0.48 -0.22,0.95 -0.33,1.42 0.11,-0.47 0.22,-0.94 0.33,-1.42zm-0.46 1.93c-0.11,0.47 -0.23,0.94 -0.36,1.4 0.13,-0.46 0.25,-0.93 0.36,-1.4zm-0.49 1.91c-0.13,0.46 -0.26,0.93 -0.39,1.39 0.13,-0.46 0.26,-0.93 0.39,-1.39zm-0.54 1.87c-0.14,0.47 -0.28,0.95 -0.43,1.41 0.15,-0.46 0.29,-0.94 0.43,-1.41zm-0.57 1.83c-0.15,0.49 -0.31,0.97 -0.48,1.45 0.17,-0.48 0.33,-0.96 0.48,-1.45zm-0.6 1.8c-0.17,0.5 -0.35,1 -0.54,1.5 0.19,-0.5 0.37,-1 0.54,-1.5zm-0.62 1.72c-1.3,3.47 -2.82,6.82 -4.55,10.05 1.73,-3.23 3.25,-6.58 4.55,-10.05zm-4.65 10.25c-0.24,0.45 -0.49,0.89 -0.73,1.33 0.24,-0.44 0.49,-0.88 0.73,-1.33zm-0.95 1.71c-0.23,0.41 -0.47,0.82 -0.71,1.22 0.24,-0.4 0.48,-0.81 0.71,-1.22zm-0.98 1.68c-0.23,0.38 -0.47,0.77 -0.71,1.15 0.24,-0.38 0.48,-0.77 0.71,-1.15zm-1.02 1.65c-0.23,0.37 -0.47,0.74 -0.71,1.11 0.24,-0.37 0.48,-0.74 0.71,-1.11zm-1.05 1.63c-0.24,0.35 -0.48,0.71 -0.73,1.06 0.25,-0.35 0.49,-0.71 0.73,-1.06zm-1.1 1.6c-0.24,0.35 -0.49,0.69 -0.74,1.04 0.25,-0.35 0.5,-0.69 0.74,-1.04zm-1.12 1.56c-0.25,0.34 -0.51,0.68 -0.76,1.02 0.25,-0.34 0.51,-0.68 0.76,-1.02zm-1.16 1.54c-0.26,0.34 -0.52,0.67 -0.78,1 0.26,-0.33 0.52,-0.66 0.78,-1zm-1.19 1.51c-0.27,0.33 -0.53,0.66 -0.8,0.98 0.27,-0.32 0.53,-0.65 0.8,-0.98zm-1.23 1.48c-0.27,0.33 -0.55,0.65 -0.83,0.97 0.28,-0.32 0.56,-0.64 0.83,-0.97zm-1.23 1.42c-0.29,0.34 -0.59,0.67 -0.88,0.99 0.29,-0.32 0.59,-0.65 0.88,-0.99zm-1.24 1.38c-0.32,0.34 -0.64,0.68 -0.96,1.02 0.32,-0.34 0.64,-0.68 0.96,-1.02zm-1.2 1.26c-1.19,1.24 -2.42,2.44 -3.68,3.6 1.26,-1.16 2.49,-2.36 3.68,-3.6zm-3.82 3.72c-0.32,0.3 -0.65,0.59 -0.98,0.88 0.33,-0.29 0.66,-0.58 0.98,-0.88zm-1.45 1.29c-0.3,0.26 -0.6,0.52 -0.9,0.77 0.3,-0.25 0.6,-0.51 0.9,-0.77zm-1.48 1.26c-0.29,0.24 -0.58,0.48 -0.88,0.72 0.3,-0.24 0.59,-0.48 0.88,-0.72zm-1.51 1.22c-0.28,0.23 -0.57,0.45 -0.86,0.68 0.29,-0.23 0.58,-0.45 0.86,-0.68zm-1.54 1.19c-0.28,0.22 -0.57,0.43 -0.86,0.64 0.29,-0.21 0.58,-0.42 0.86,-0.64zm-1.56 1.16c-0.29,0.2 -0.58,0.41 -0.87,0.61 0.29,-0.2 0.58,-0.41 0.87,-0.61zm-1.6 1.11c-0.28,0.2 -0.57,0.39 -0.86,0.59 0.29,-0.2 0.58,-0.39 0.86,-0.59zm-1.62 1.09c-0.29,0.18 -0.58,0.37 -0.87,0.55 0.29,-0.18 0.58,-0.37 0.87,-0.55zm-1.65 1.04c-0.29,0.18 -0.58,0.36 -0.87,0.53 0.29,-0.17 0.58,-0.35 0.87,-0.53zm-1.68 1.01c-0.29,0.17 -0.58,0.34 -0.87,0.5 0.29,-0.16 0.58,-0.33 0.87,-0.5zm-1.7 0.97c-0.3,0.16 -0.59,0.33 -0.88,0.48 0.29,-0.15 0.58,-0.32 0.88,-0.48zm-1.73 0.93c-0.29,0.16 -0.58,0.31 -0.88,0.46 0.3,-0.15 0.59,-0.3 0.88,-0.46zm-1.77 0.9c-0.29,0.15 -0.57,0.29 -0.86,0.43 0.29,-0.14 0.57,-0.28 0.86,-0.43zm-1.83 0.88c-0.27,0.12 -0.54,0.25 -0.81,0.37 0.27,-0.12 0.54,-0.25 0.81,-0.37zm-1.92 0.86c-0.23,0.1 -0.46,0.2 -0.69,0.3 0.23,-0.1 0.46,-0.2 0.69,-0.3zm-2.49 1.03c-0.22,0.09 -0.45,0.18 -0.68,0.26 0.23,-0.08 0.46,-0.17 0.68,-0.26zm-1.85 0.71c-0.26,0.1 -0.53,0.19 -0.79,0.28 0.26,-0.09 0.53,-0.18 0.79,-0.28zm-1.87 0.66c-0.25,0.09 -0.5,0.17 -0.75,0.25l0.75 -0.25zm-0.74 0.24c0.25,-0.08 0.5,-0.16 0.74,-0.24l-0.74 0.24zm-1.15 0.38c-0.23,0.07 -0.46,0.14 -0.69,0.21 0.23,-0.07 0.46,-0.14 0.69,-0.21zm-1.91 0.57c-0.2,0.06 -0.4,0.12 -0.6,0.17 0.2,-0.05 0.4,-0.11 0.6,-0.17zm-0.6 0.17l-0.02 0.01 0 0 0.02 -0.01zm-1.32 0.36c-0.13,0.03 -0.26,0.07 -0.38,0.1 0.12,-0.03 0.25,-0.07 0.38,-0.1zm-0.42 0.11l-0.02 0 -0.01 0.01 -0.02 0 -0.01 0 -0.01 0.01 -0.02 0 -0.01 0 0.1 -0.02zm-1.76 0.43l0.01 -0.01 0.02 0 0 0 -0.02 0 0 0 -0.01 0.01zm0.06 -0.02l0.01 0 0 0 -0.01 0zm-33.58 0.93c-0.11,-0.02 -0.22,-0.04 -0.33,-0.06 0.11,0.02 0.22,0.04 0.33,0.06zm-0.61 -0.11c-0.17,-0.03 -0.34,-0.06 -0.51,-0.1 0.17,0.04 0.34,0.07 0.51,0.1zm-2.18 -0.43c-0.13,-0.03 -0.25,-0.06 -0.38,-0.08l0.38 0.08zm-1.09 -0.24c-0.24,-0.06 -0.47,-0.11 -0.71,-0.16 0.24,0.05 0.47,0.1 0.71,0.16zm-0.86 -0.2c-0.13,-0.03 -0.26,-0.06 -0.39,-0.09 0.13,0.03 0.26,0.06 0.39,0.09zm-0.84 -0.2c-0.33,-0.09 -0.66,-0.17 -0.98,-0.25 0.32,0.08 0.65,0.16 0.98,0.25zm-1.04 -0.27c-0.16,-0.04 -0.32,-0.08 -0.48,-0.13l-0.01 0c0.17,0.05 0.33,0.09 0.49,0.13zm-0.89 -0.24c-0.15,-0.04 -0.29,-0.08 -0.43,-0.12 0.14,0.04 0.28,0.08 0.43,0.12l0 0zm-0.52 -0.14c-0.15,-0.04 -0.29,-0.08 -0.44,-0.13 0.15,0.05 0.29,0.09 0.44,0.13zm-0.45 -0.13c-0.17,-0.05 -0.34,-0.1 -0.51,-0.15 0.17,0.05 0.34,0.1 0.51,0.15zm-0.93 -0.27c-0.15,-0.05 -0.3,-0.09 -0.44,-0.14 0.15,0.05 0.3,0.1 0.45,0.14l-0.01 0zm-0.46 -0.14c-0.32,-0.1 -0.64,-0.2 -0.95,-0.3 0.31,0.1 0.63,0.2 0.95,0.3zm-1.43 -0.45c-0.45,-0.15 -0.9,-0.3 -1.35,-0.46 0.45,0.16 0.89,0.31 1.34,0.45l0.01 0.01z"/>
   </g>
   <path class="fil2" d="M182.63 110.8c-0.48,3.73 -1.22,7.39 -2.18,10.95 -23.29,5.16 -44.75,15.2 -63.25,28.98 -2.47,-3.34 -5.12,-6.54 -7.94,-9.59 21.2,-15.56 46.21,-26.23 73.37,-30.34zm-97.42 71.22l0 0c-0.38,-0.07 -0.76,-0.14 -1.14,-0.21 0.38,0.07 0.76,0.14 1.14,0.21zm-1.41 -0.26c-0.55,-0.11 -1.1,-0.22 -1.65,-0.34 0.55,0.12 1.1,0.23 1.65,0.34zm-1.98 -0.42c-0.52,-0.11 -1.04,-0.23 -1.56,-0.36 0.52,0.13 1.04,0.25 1.56,0.36zm-1.56 -0.36c-0.13,-0.03 -0.27,-0.07 -0.4,-0.1l0.4 0.1zm-0.4 -0.1c-0.5,-0.12 -0.99,-0.25 -1.48,-0.38 0.49,0.13 0.98,0.26 1.48,0.38zm-1.94 -0.51c-0.47,-0.13 -0.94,-0.26 -1.41,-0.39 0.47,0.13 0.94,0.26 1.41,0.39zm-1.9 -0.54c-0.45,-0.14 -0.9,-0.28 -1.35,-0.42 0.45,0.14 0.9,0.28 1.35,0.42zm-1.91 -0.6c-0.42,-0.14 -0.84,-0.28 -1.26,-0.42 0.42,0.14 0.84,0.28 1.26,0.42zm-1.87 -0.64l-0.01 0 0 0 0.01 0zm108.21 -56.84c-0.12,0.48 -0.26,0.95 -0.4,1.43 0.14,-0.48 0.28,-0.95 0.4,-1.43zm-0.48 1.72c-0.13,0.44 -0.26,0.88 -0.4,1.32 0.14,-0.44 0.27,-0.88 0.4,-1.32zm-0.52 1.71c-0.13,0.42 -0.27,0.83 -0.41,1.25 0.14,-0.42 0.28,-0.83 0.41,-1.25zm-0.55 1.68c-0.14,0.41 -0.29,0.82 -0.43,1.22 0.14,-0.4 0.29,-0.81 0.43,-1.22zm-0.59 1.66c-0.15,0.4 -0.3,0.81 -0.45,1.21 0.15,-0.4 0.3,-0.81 0.45,-1.21zm-0.61 1.62c-0.16,0.41 -0.32,0.82 -0.49,1.23 0.17,-0.41 0.33,-0.82 0.49,-1.23zm-0.63 1.58c-0.18,0.43 -0.36,0.86 -0.54,1.28 0.18,-0.42 0.36,-0.85 0.54,-1.28zm-0.62 1.46c-0.87,2.01 -1.82,3.98 -2.85,5.91 1.03,-1.93 1.98,-3.9 2.85,-5.91zm-2.87 5.95c-0.22,0.42 -0.45,0.84 -0.68,1.25 0.23,-0.41 0.46,-0.83 0.68,-1.25zm-0.84 1.54c-0.21,0.38 -0.43,0.76 -0.65,1.14 0.22,-0.38 0.44,-0.76 0.65,-1.14zm-0.88 1.53c-0.21,0.36 -0.42,0.72 -0.64,1.07 0.22,-0.35 0.43,-0.71 0.64,-1.07zm-0.9 1.49c-0.21,0.35 -0.43,0.69 -0.65,1.04 0.22,-0.35 0.44,-0.69 0.65,-1.04zm-0.93 1.48c-0.22,0.34 -0.44,0.68 -0.67,1.01 0.23,-0.33 0.45,-0.67 0.67,-1.01zm-0.95 1.44c-0.23,0.34 -0.46,0.68 -0.7,1.01 0.24,-0.33 0.47,-0.67 0.7,-1.01zm-0.96 1.39c-0.25,0.35 -0.5,0.7 -0.75,1.05 0.25,-0.35 0.5,-0.7 0.75,-1.05zm-0.93 1.29c-1.22,1.66 -2.5,3.27 -3.84,4.83 1.34,-1.56 2.62,-3.17 3.84,-4.83zm-4.04 5.08c-0.27,0.31 -0.54,0.61 -0.81,0.92 0.27,-0.31 0.54,-0.61 0.81,-0.92zm-1.16 1.31c-0.26,0.29 -0.52,0.57 -0.78,0.85 0.26,-0.28 0.52,-0.56 0.78,-0.85zm-1.18 1.29c-0.26,0.27 -0.51,0.54 -0.77,0.8 0.26,-0.26 0.51,-0.53 0.77,-0.8zm-1.22 1.27c-0.25,0.26 -0.5,0.51 -0.75,0.76 0.25,-0.25 0.5,-0.5 0.75,-0.76zm-1.23 1.24c-0.26,0.25 -0.51,0.5 -0.77,0.74 0.26,-0.24 0.51,-0.49 0.77,-0.74zm-1.25 1.2c-0.27,0.24 -0.53,0.49 -0.79,0.73 0.26,-0.24 0.52,-0.49 0.79,-0.73zm-1.28 1.17c-0.27,0.25 -0.54,0.49 -0.81,0.73 0.27,-0.24 0.54,-0.48 0.81,-0.73zm-1.27 1.13c-0.29,0.25 -0.57,0.5 -0.87,0.75 0.3,-0.25 0.58,-0.5 0.87,-0.75zm-1.12 0.96c-0.72,0.6 -1.45,1.19 -2.19,1.77 0.74,-0.58 1.47,-1.17 2.19,-1.77zm-2.37 1.91c-0.28,0.22 -0.57,0.43 -0.85,0.65 0.28,-0.22 0.57,-0.43 0.85,-0.65zm-1.41 1.07c-0.26,0.2 -0.53,0.39 -0.8,0.58 0.27,-0.19 0.54,-0.38 0.8,-0.58zm-1.42 1.03c-0.26,0.19 -0.53,0.37 -0.79,0.56 0.26,-0.19 0.53,-0.37 0.79,-0.56zm-1.45 1.01c-0.26,0.18 -0.52,0.35 -0.78,0.53 0.26,-0.18 0.52,-0.35 0.78,-0.53zm-1.47 0.98c-0.27,0.17 -0.53,0.34 -0.79,0.51 0.26,-0.17 0.52,-0.34 0.79,-0.51zm-1.49 0.94c-0.27,0.17 -0.53,0.33 -0.8,0.49 0.27,-0.16 0.53,-0.32 0.8,-0.49zm-1.52 0.92c-0.27,0.16 -0.53,0.31 -0.79,0.47 0.26,-0.16 0.52,-0.31 0.79,-0.47zm-1.55 0.9c-0.26,0.14 -0.52,0.29 -0.78,0.43 0.26,-0.14 0.52,-0.29 0.78,-0.43zm-1.59 0.86c-0.25,0.14 -0.5,0.27 -0.75,0.41 0.25,-0.14 0.5,-0.27 0.75,-0.41zm-1.73 0.9c-0.33,0.17 -0.66,0.33 -0.99,0.5 0.33,-0.17 0.66,-0.33 0.99,-0.5zm-2.16 1.06c-0.23,0.1 -0.46,0.21 -0.69,0.31 0.23,-0.1 0.46,-0.21 0.69,-0.31zm-1.62 0.73c-0.25,0.11 -0.5,0.22 -0.75,0.33 0.25,-0.11 0.5,-0.22 0.75,-0.33zm-1.64 0.71c-0.26,0.1 -0.52,0.21 -0.78,0.31 0.26,-0.1 0.52,-0.21 0.78,-0.31zm-1.67 0.67c-0.26,0.1 -0.52,0.2 -0.78,0.3 0.26,-0.1 0.52,-0.2 0.78,-0.3zm-1.68 0.64c-0.26,0.09 -0.52,0.19 -0.79,0.28 0.27,-0.09 0.53,-0.19 0.79,-0.28zm-1.7 0.6c-0.27,0.09 -0.53,0.18 -0.79,0.26 0.26,-0.08 0.52,-0.17 0.79,-0.26zm-1.73 0.57c-0.26,0.08 -0.52,0.16 -0.78,0.24 0.26,-0.08 0.52,-0.16 0.78,-0.24zm-1.77 0.54c-0.24,0.07 -0.49,0.14 -0.74,0.21 0.25,-0.07 0.5,-0.14 0.74,-0.21zm-1.93 0.54c-0.18,0.05 -0.37,0.1 -0.56,0.15 0.19,-0.05 0.38,-0.1 0.56,-0.15zm-2.09 0.53c-0.1,0.02 -0.21,0.05 -0.31,0.07 0.1,-0.02 0.21,-0.05 0.31,-0.07zm-1.99 0.45c-0.13,0.03 -0.25,0.05 -0.38,0.08 0.13,-0.03 0.25,-0.05 0.38,-0.08zm-1.8 0.36c-0.08,0.02 -0.17,0.03 -0.25,0.05l0 0 0 0c0.08,-0.02 0.17,-0.03 0.25,-0.05zm-27.54 0.63l-0.17 -0.02 0.17 0.02zm-0.17 -0.02l0 0 0 0zm0 0l-0.01 0 0.01 0zm-0.01 0l-0.16 -0.03 0.16 0.03zm-0.16 -0.03l-0.01 0 0.01 0zm-0.01 0l0 0 0 0zm0 0l-0.06 -0.01 0.06 0.01zm-0.55 -0.08c-0.13,-0.02 -0.26,-0.04 -0.39,-0.06 0.13,0.02 0.26,0.04 0.39,0.06z"/>
  </g>
  <path class="fil2" d="M17.06 108.1c0.28,2.91 0.71,5.77 1.29,8.58 35.45,0.53 66.88,17.67 86.85,43.98 3.08,-2.79 6.27,-5.45 9.56,-8 -20.25,-27.24 -52.66,-44.88 -89.2,-44.88 -2.86,0 -5.7,0.11 -8.5,0.32zm1.29 8.58c1.44,7.12 3.8,13.91 6.93,20.25 -3.13,-6.34 -5.49,-13.13 -6.93,-20.25zm6.96 20.29c0.25,0.51 0.5,1.01 0.77,1.52 -0.27,-0.51 -0.52,-1.01 -0.77,-1.52zm0.81 1.6c0.26,0.5 0.53,0.99 0.8,1.48 -0.27,-0.49 -0.54,-0.98 -0.8,-1.48zm0.84 1.56c0.27,0.49 0.55,0.99 0.83,1.47 -0.28,-0.48 -0.56,-0.98 -0.83,-1.47zm0.86 1.53c2.63,4.54 5.67,8.81 9.08,12.76 -3.41,-3.95 -6.45,-8.22 -9.08,-12.76zm9.15 12.84c0.33,0.39 0.67,0.78 1.02,1.16 -0.35,-0.38 -0.69,-0.77 -1.02,-1.16zm1.19 1.36c0.33,0.35 0.66,0.71 0.99,1.06 -0.33,-0.35 -0.66,-0.71 -0.99,-1.06zm1.23 1.32c0.32,0.34 0.64,0.67 0.96,1 -0.32,-0.33 -0.64,-0.66 -0.96,-1zm1.25 1.3c0.32,0.32 0.64,0.64 0.96,0.96 -0.32,-0.32 -0.64,-0.64 -0.96,-0.96zm1.28 1.27c0.31,0.31 0.64,0.61 0.96,0.92 -0.32,-0.31 -0.65,-0.61 -0.96,-0.92zm1.29 1.23c0.33,0.3 0.66,0.6 0.99,0.9 -0.33,-0.3 -0.66,-0.6 -0.99,-0.9zm1.32 1.2c0.33,0.3 0.67,0.59 1,0.89 -0.33,-0.3 -0.67,-0.59 -1,-0.89zm1.33 1.16c0.35,0.3 0.7,0.6 1.05,0.89 -0.35,-0.29 -0.7,-0.59 -1.05,-0.89zm1.31 1.1c0.38,0.31 0.76,0.62 1.14,0.92 -0.38,-0.3 -0.76,-0.61 -1.14,-0.92zm1.23 0.99c1.72,1.36 3.49,2.65 5.32,3.87 -1.83,-1.22 -3.6,-2.51 -5.32,-3.87zm5.64 4.09c0.34,0.23 0.69,0.45 1.03,0.67 -0.34,-0.22 -0.69,-0.44 -1.03,-0.67zm1.53 0.99c0.32,0.2 0.64,0.4 0.97,0.6 -0.33,-0.2 -0.65,-0.4 -0.97,-0.6zm1.56 0.96c0.31,0.19 0.62,0.37 0.93,0.55 -0.31,-0.18 -0.62,-0.36 -0.93,-0.55zm1.58 0.93c0.3,0.17 0.61,0.34 0.91,0.51 -0.3,-0.17 -0.61,-0.34 -0.91,-0.51zm1.6 0.89c0.3,0.16 0.61,0.32 0.91,0.48 -0.3,-0.16 -0.61,-0.32 -0.91,-0.48zm1.62 0.85c0.3,0.16 0.6,0.31 0.91,0.46 -0.31,-0.15 -0.61,-0.3 -0.91,-0.46zm1.65 0.83c0.29,0.14 0.59,0.29 0.89,0.43 -0.3,-0.14 -0.6,-0.29 -0.89,-0.43zm1.68 0.79c0.29,0.14 0.58,0.27 0.88,0.4 -0.3,-0.13 -0.59,-0.26 -0.88,-0.4zm1.68 0.75c0.3,0.13 0.59,0.26 0.88,0.38 -0.29,-0.12 -0.58,-0.25 -0.88,-0.38zm1.73 0.73c0.28,0.11 0.57,0.23 0.86,0.34 -0.29,-0.11 -0.58,-0.23 -0.86,-0.34zm1.74 0.68c0.28,0.11 0.56,0.22 0.84,0.32 -0.28,-0.1 -0.56,-0.21 -0.84,-0.32zm1.83 0.67c0.25,0.09 0.5,0.18 0.76,0.27 -0.26,-0.09 -0.51,-0.18 -0.76,-0.27zm2.48 0.84c0.24,0.07 0.47,0.14 0.71,0.22 -0.24,-0.08 -0.47,-0.15 -0.71,-0.22zm1.79 0.55c0.26,0.07 0.52,0.14 0.78,0.22 -0.26,-0.08 -0.52,-0.15 -0.78,-0.22zm1.8 0.5c0.27,0.07 0.55,0.14 0.83,0.21 -0.28,-0.07 -0.56,-0.14 -0.83,-0.21zm1.82 0.47c0.28,0.07 0.56,0.13 0.84,0.2 -0.28,-0.07 -0.56,-0.13 -0.84,-0.2zm1.84 0.42c0.28,0.07 0.56,0.12 0.84,0.18 -0.28,-0.06 -0.56,-0.11 -0.84,-0.18zm1.85 0.39c0.28,0.06 0.57,0.11 0.85,0.16 -0.28,-0.05 -0.57,-0.1 -0.85,-0.16z"/>
  <path class="fil2" d="M18.85 118.98c0.88,3.78 2.02,7.46 3.4,11.02 -0.13,-0.34 -0.27,-0.68 -0.39,-1.03 29.38,4.32 55.01,20.15 72.19,42.75 2.84,-3.09 5.79,-6.07 8.85,-8.94 -19.46,-25.58 -49.76,-42.46 -84.05,-43.8zm3.6 11.54c0.12,0.32 0.25,0.63 0.38,0.94 -0.13,-0.31 -0.26,-0.62 -0.38,-0.94zm0.62 1.54c0.13,0.3 0.26,0.6 0.39,0.9 -0.13,-0.3 -0.26,-0.6 -0.39,-0.9zm0.66 1.52c0.13,0.3 0.26,0.59 0.39,0.88 -0.13,-0.29 -0.26,-0.58 -0.39,-0.88zm0.68 1.51c0.13,0.29 0.27,0.57 0.4,0.86 -0.13,-0.29 -0.27,-0.57 -0.4,-0.86zm0.71 1.49c0.14,0.28 0.28,0.57 0.42,0.85 -0.14,-0.28 -0.28,-0.57 -0.42,-0.85zm0.73 1.46c0.15,0.28 0.3,0.57 0.45,0.85 -0.15,-0.28 -0.3,-0.57 -0.45,-0.85zm0.76 1.44c0.15,0.28 0.31,0.57 0.47,0.86 -0.16,-0.29 -0.32,-0.58 -0.47,-0.86zm0.77 1.39c0.17,0.3 0.34,0.6 0.51,0.9 -0.17,-0.3 -0.34,-0.6 -0.51,-0.9zm0.68 1.19c0.43,0.74 0.87,1.47 1.33,2.19 -0.46,-0.72 -0.9,-1.45 -1.33,-2.19zm1.47 2.41c0.18,0.29 0.37,0.58 0.56,0.87 -0.19,-0.29 -0.38,-0.58 -0.56,-0.87zm0.89 1.38c0.18,0.27 0.36,0.54 0.54,0.8 -0.18,-0.26 -0.36,-0.53 -0.54,-0.8zm0.92 1.36c0.18,0.26 0.36,0.52 0.54,0.77 -0.18,-0.25 -0.36,-0.51 -0.54,-0.77zm0.94 1.34c0.18,0.25 0.36,0.5 0.54,0.75 -0.18,-0.25 -0.36,-0.5 -0.54,-0.75zm0.97 1.32c0.18,0.25 0.37,0.49 0.55,0.74 -0.18,-0.25 -0.37,-0.49 -0.55,-0.74zm0.99 1.3c0.19,0.24 0.37,0.48 0.56,0.72 -0.19,-0.24 -0.37,-0.48 -0.56,-0.72zm1.02 1.29c0.19,0.23 0.38,0.46 0.57,0.7 -0.19,-0.24 -0.38,-0.47 -0.57,-0.7zm1.04 1.26c0.2,0.23 0.39,0.46 0.59,0.68 -0.2,-0.22 -0.39,-0.45 -0.59,-0.68zm1.06 1.23c0.2,0.23 0.4,0.46 0.61,0.68 -0.21,-0.22 -0.41,-0.45 -0.61,-0.68zm0.99 1.1c0.43,0.47 0.86,0.94 1.3,1.4 -0.44,-0.46 -0.87,-0.93 -1.3,-1.4zm1.79 1.91c0.2,0.21 0.41,0.42 0.62,0.63 -0.21,-0.21 -0.42,-0.42 -0.62,-0.63zm1.14 1.16c0.21,0.21 0.42,0.41 0.63,0.62 -0.21,-0.21 -0.42,-0.41 -0.63,-0.62zm1.18 1.15c0.2,0.19 0.41,0.39 0.62,0.58 -0.21,-0.19 -0.42,-0.39 -0.62,-0.58zm1.2 1.12c0.21,0.19 0.41,0.38 0.62,0.57 -0.21,-0.19 -0.41,-0.38 -0.62,-0.57zm1.21 1.09c0.22,0.19 0.43,0.38 0.65,0.56 -0.22,-0.18 -0.43,-0.37 -0.65,-0.56zm1.24 1.07c0.22,0.19 0.43,0.37 0.65,0.55 -0.22,-0.18 -0.43,-0.36 -0.65,-0.55zm1.27 1.06c0.22,0.18 0.43,0.35 0.64,0.52 -0.21,-0.17 -0.42,-0.34 -0.64,-0.52zm1.3 1.04c0.21,0.16 0.42,0.33 0.63,0.49 -0.21,-0.16 -0.42,-0.33 -0.63,-0.49zm1.33 1.02c0.21,0.15 0.41,0.31 0.61,0.46 -0.2,-0.15 -0.4,-0.31 -0.61,-0.46zm1.9 1.39c0.18,0.13 0.38,0.26 0.56,0.39 -0.18,-0.13 -0.38,-0.26 -0.56,-0.39zm1.35 0.94c0.21,0.14 0.41,0.27 0.62,0.41 -0.21,-0.14 -0.41,-0.27 -0.62,-0.41zm1.37 0.91c0.22,0.14 0.44,0.28 0.66,0.42 -0.22,-0.14 -0.44,-0.28 -0.66,-0.42zm1.39 0.88c0.23,0.14 0.45,0.28 0.68,0.42 -0.23,-0.14 -0.45,-0.28 -0.68,-0.42zm1.41 0.85c0.22,0.14 0.45,0.28 0.68,0.41 -0.23,-0.13 -0.46,-0.27 -0.68,-0.41zm1.44 0.84c0.22,0.13 0.45,0.26 0.67,0.38 -0.22,-0.12 -0.45,-0.25 -0.67,-0.38zm1.46 0.81c0.22,0.12 0.44,0.25 0.66,0.36 -0.22,-0.11 -0.44,-0.24 -0.66,-0.36zm1.47 0.79c0.22,0.11 0.44,0.22 0.66,0.34 -0.22,-0.12 -0.44,-0.23 -0.66,-0.34zm1.53 0.76c0.2,0.11 0.41,0.21 0.62,0.31 -0.21,-0.1 -0.42,-0.2 -0.62,-0.31zm1.63 0.78c0.16,0.08 0.33,0.16 0.49,0.23 -0.16,-0.07 -0.33,-0.15 -0.49,-0.23zm1.99 0.9c0.17,0.07 0.34,0.14 0.51,0.22 -0.17,-0.08 -0.34,-0.15 -0.51,-0.22zm1.53 0.64c0.21,0.09 0.43,0.17 0.64,0.26 -0.21,-0.09 -0.43,-0.17 -0.64,-0.26zm1.56 0.62c0.22,0.09 0.45,0.17 0.67,0.26 -0.22,-0.09 -0.45,-0.17 -0.67,-0.26zm1.57 0.59c0.23,0.08 0.46,0.16 0.69,0.25 -0.23,-0.09 -0.46,-0.17 -0.69,-0.25zm1.58 0.55c0.24,0.08 0.47,0.16 0.71,0.24 -0.24,-0.08 -0.47,-0.16 -0.71,-0.24zm1.61 0.53c0.23,0.07 0.47,0.15 0.7,0.22 -0.23,-0.07 -0.47,-0.15 -0.7,-0.22zm1.62 0.5c0.24,0.07 0.47,0.13 0.71,0.2 -0.24,-0.07 -0.47,-0.13 -0.71,-0.2zm1.66 0.47c0.22,0.06 0.45,0.12 0.67,0.18 -0.22,-0.06 -0.45,-0.12 -0.67,-0.18zm1.71 0.44c0.2,0.05 0.4,0.1 0.61,0.15 -0.21,-0.05 -0.41,-0.1 -0.61,-0.15zm2.02 0.48c0.08,0.02 0.15,0.04 0.23,0.05 -0.08,-0.01 -0.15,-0.03 -0.23,-0.05zm1.9 0.4c0.18,0.04 0.35,0.07 0.53,0.1 -0.18,-0.03 -0.35,-0.06 -0.53,-0.1z"/>
  <path class="fil1" d="M22.94 131.73c10.68,25.92 34.05,45.27 62.37,50.31 2.13,-2.72 4.33,-5.38 6.62,-7.96 -16.54,-21.82 -40.94,-37.35 -68.99,-42.35z"/>
  <path class="fil1" d="M179.6 124.69c-10.52,33.97 -42.17,58.64 -79.6,58.64 -3.82,0 -7.57,-0.25 -11.25,-0.75 22.69,-28.33 54.43,-49.09 90.85,-57.89z"/>
 </g>
</svg>
